<?xml version="1.0" standalone="no"?>
<svg xmlns="http://www.w3.org/2000/svg" viewBox="0 0 44 47" width="44" height="47"><g fill="#ead017" color="#ead017" transform="translate(0 0) scale(0.7857143) "><svg width="56.0" height="26.0" x="0.0" y="0.0" viewBox="0 0 56 26"><title></title><path d="M197,101l-7.4,23a1.4,1.4,0,0,1-1.3,1h-0.4a1.4,1.4,0,0,1-.9-1.8l7.4-23A1.4,1.4,0,1,1,197,101Zm-14.3,18.5-10.5-7,10.7-8.1a3,3,0,1,0-3.6-4.8l-14,10.7a3,3,0,0,0,.2,4.9l14,9.3A3,3,0,1,0,182.7,119.5Zm36-10.7-14-9.3a3,3,0,0,0-3.3,5l10.5,7-10.7,8.1a3,3,0,0,0,3.6,4.8l14-10.7A3,3,0,0,0,218.7,108.8Z" transform="translate(-164 -99)"></path></svg></g><path fill="#000000" fill-rule="nonzero" d="M3.53 17.86L0 18.14L0 0.29L3.53 0L3.53 7.30L6.89 7.30L6.89 0.29L10.42 0L10.42 17.86L6.89 18.14L6.89 10.51L3.53 10.51L3.53 17.86ZM19.61 17.86L16.10 18.14L16.10 2.81L12.43 2.81L12.70 0L23.26 0L22.97 2.81L19.61 2.81L19.61 17.86Z" transform="translate(10.372, 28.429)"></path></svg>